<?xml version="1.0" standalone="no"?>
<!DOCTYPE svg PUBLIC "-//W3C//DTD SVG 20010904//EN"
 "http://www.w3.org/TR/2001/REC-SVG-20010904/DTD/svg10.dtd">
<svg version="1.0" xmlns="http://www.w3.org/2000/svg"
 width="100.000000pt" height="100.000000pt" viewBox="0 0 100.000000 100.000000"
 preserveAspectRatio="xMidYMid meet">

<g transform="translate(0.000000,100.000000) scale(0.100000,-0.100000)"
fill="#000000" stroke="none">
<path d="M686 771 c-10 -11 -25 -16 -39 -14 -18 4 -32 -6 -60 -40 -20 -25 -37
-52 -37 -60 0 -18 32 -47 53 -47 14 0 17 -11 17 -60 l0 -60 -105 0 -104 0 -3
76 c-2 60 -7 79 -20 88 -26 16 -52 -4 -56 -41 -3 -25 -7 -30 -23 -26 -29 8
-49 -15 -49 -57 0 -21 -7 -43 -15 -50 -19 -16 -19 -34 0 -50 23 -19 18 -31 -9
-24 -16 4 -30 -1 -42 -14 -11 -11 -35 -29 -54 -39 -67 -38 -48 -84 34 -81 l51
1 -55 6 c-47 5 -55 9 -58 28 -2 17 6 26 35 39 21 10 44 26 51 36 16 21 35 23
51 4 6 -7 22 -11 36 -8 18 3 27 -1 32 -14 4 -11 13 -24 21 -30 25 -19 10 -48
-28 -55 -31 -6 -32 -7 -7 -8 15 0 36 -7 47 -13 15 -10 25 -10 38 -2 13 9 18
28 20 88 l3 76 104 0 104 0 3 -76 c2 -60 7 -79 21 -88 25 -16 51 4 55 41 3 25
7 30 23 26 29 -8 49 15 49 57 0 21 7 43 15 50 8 7 15 18 15 25 0 7 -7 18 -15
25 -8 7 -15 29 -15 50 0 42 -20 65 -50 57 -13 -3 -20 0 -20 9 0 11 18 14 78
14 64 0 82 4 95 18 26 28 21 48 -20 80 -44 34 -83 47 -83 27 0 -9 8 -11 21 -8
13 4 27 0 33 -8 6 -8 20 -19 31 -25 24 -14 31 -40 15 -59 -9 -11 -34 -15 -89
-15 -65 0 -78 3 -89 20 -7 11 -21 20 -32 20 -11 0 -25 -9 -32 -20 -14 -23 -38
-26 -56 -8 -17 17 -15 45 6 60 10 7 21 21 25 31 9 23 36 33 56 20 12 -8 18 -5
26 11 6 11 21 23 35 27 22 6 22 7 4 8 -11 1 -28 -7 -38 -18z m-292 -147 c8
-20 8 -318 0 -338 -3 -9 -14 -16 -23 -16 -19 0 -19 -6 -27 194 -3 72 -3 140 1
153 6 27 40 31 49 7z m290 0 c8 -20 8 -318 0 -338 -3 -9 -14 -16 -24 -16 -27
0 -30 19 -30 185 0 166 3 185 30 185 10 0 21 -7 24 -16z m-360 -70 c3 -9 6
-51 6 -95 0 -88 -19 -111 -22 -26 l-2 52 -3 -47 c-3 -34 -8 -48 -19 -48 -11 0
-14 16 -14 74 0 41 3 81 6 90 8 21 40 21 48 0z m430 0 c8 -20 8 -178 0 -198
-8 -21 -40 -21 -48 0 -3 9 -6 53 -6 99 0 96 5 115 30 115 10 0 21 -7 24 -16z
m-497 -106 c-3 -8 -6 -5 -6 6 -1 11 2 17 5 13 3 -3 4 -12 1 -19z m363 7 c0
-12 -18 -15 -105 -15 -87 0 -105 3 -105 15 0 12 18 15 105 15 87 0 105 -3 105
-15z m157 -7 c-3 -8 -6 -5 -6 6 -1 11 2 17 5 13 3 -3 4 -12 1 -19z"/>
<path d="M372 595 c0 -16 2 -22 5 -12 2 9 2 23 0 30 -3 6 -5 -1 -5 -18z"/>
<path d="M373 495 c0 -38 2 -53 4 -32 2 20 2 52 0 70 -2 17 -4 1 -4 -38z"/>
<path d="M373 350 c0 -36 2 -50 4 -32 2 17 2 47 0 65 -2 17 -4 3 -4 -33z"/>
<path d="M662 595 c0 -16 2 -22 5 -12 2 9 2 23 0 30 -3 6 -5 -1 -5 -18z"/>
<path d="M663 495 c0 -38 2 -53 4 -32 2 20 2 52 0 70 -2 17 -4 1 -4 -38z"/>
<path d="M663 350 c0 -36 2 -50 4 -32 2 17 2 47 0 65 -2 17 -4 3 -4 -33z"/>
<path d="M302 525 c0 -16 2 -22 5 -12 2 9 2 23 0 30 -3 6 -5 -1 -5 -18z"/>
<path d="M732 525 c0 -16 2 -22 5 -12 2 9 2 23 0 30 -3 6 -5 -1 -5 -18z"/>
<path d="M733 420 c0 -36 2 -50 4 -32 2 17 2 47 0 65 -2 17 -4 3 -4 -33z"/>
</g>
</svg>
